<svg id="Ebene_1" data-name="Ebene 1" xmlns="http://www.w3.org/2000/svg" viewBox="0 0 23.76 22.67"><defs></defs><path class="cls-1" d="M113.1,71a5,5,0,0,1,1.21.59l7.21-6.39a2.79,2.79,0,0,1-.43-1.56,2.72,2.72,0,0,1,5.4-.34.61.61,0,0,0,.05.12V64c0,.15-.07.3-.12.44a2.71,2.71,0,0,1-4.21,1.45l-.16-.11-7.24,6.4a3.27,3.27,0,0,1,.48,1.29,2.84,2.84,0,0,1-.19,1.5c0,.12,0,.17.08.23l2.93,1.84a1.63,1.63,0,0,1,.11-.17,2.77,2.77,0,1,1-.65,1.07c.06-.19,0-.28-.14-.38-.93-.57-1.86-1.16-2.8-1.76a3.07,3.07,0,0,1-3.08,1l-.92,2.25c-.09.23-.17.47-.28.69a.17.17,0,0,0,.07.24,2.05,2.05,0,0,1-.86,3.63l-.07,0h-.66l-.33-.1a2.09,2.09,0,0,1-1.38-2.12,2.06,2.06,0,0,1,1.75-1.85,4.87,4.87,0,0,1,.54,0,.3.3,0,0,0,.2-.12c.4-1,.79-2,1.18-2.91a7.73,7.73,0,0,1-.78-.72,9.36,9.36,0,0,1-.59-.9l-1.66.36-1.18.25a.24.24,0,0,0-.22.22A1.46,1.46,0,0,1,104.81,77a1.49,1.49,0,0,1-1.38-1.32,1.48,1.48,0,0,1,1.18-1.62,1.43,1.43,0,0,1,1.52.62.21.21,0,0,0,.27.1l2.71-.59.17,0a3.12,3.12,0,0,1,.79-2.26l-4.69-5.55a1.85,1.85,0,0,1-2.42-.85,1.82,1.82,0,1,1,3.05.35l4.67,5.53a3,3,0,0,1,1.73-.47,4.42,4.42,0,0,1,.69.12m1.41,2.89a2.21,2.21,0,1,0-2.18,2.23A2.22,2.22,0,0,0,114.51,73.9Z" transform="translate(-102.77 -61.01)"/><path class="cls-3" d="M112.56,69.15c.09.06.17.09.14.23-.07.38-.1.57-.17,1a3.45,3.45,0,0,1,.79.15c.07-.36.1-.54.16-.91,0-.14.06-.2.21-.22a1.71,1.71,0,0,0,1.41-2A1.73,1.73,0,0,0,113,66a1.71,1.71,0,0,0-1.27,1.5A1.64,1.64,0,0,0,112.56,69.15Z" transform="translate(-102.77 -61.01)"/></svg>